<?xml version="1.0" encoding="utf-8"?>
<!-- Generator: Adobe Illustrator 16.0.3, SVG Export Plug-In . SVG Version: 6.00 Build 0)  -->
<!DOCTYPE svg PUBLIC "-//W3C//DTD SVG 1.1//EN" "http://www.w3.org/Graphics/SVG/1.1/DTD/svg11.dtd">
<svg version="1.1" id="Layer_1" xmlns="http://www.w3.org/2000/svg" xmlns:xlink="http://www.w3.org/1999/xlink" x="0px" y="0px"
	 width="272.333px" height="63px" viewBox="-1.657 -1.521 272.333 63" enable-background="new -1.657 -1.521 272.333 63"
	 xml:space="preserve">
<path fill="#000000" d="M245.432,50.272c0.037,6.951,5.545,9.686,11.774,9.686c5.963,0,11.812-2.203,11.812-9.078
	c0-4.897-3.949-6.723-7.86-7.823c-3.95-1.103-7.862-1.479-7.862-3.57c0-1.784,1.898-2.315,3.418-2.315
	c2.165,0,4.48,0.799,4.368,3.266h7.063c-0.039-6.115-5.47-8.734-10.861-8.734c-5.092,0-11.055,2.316-11.055,8.242
	c0,4.975,4.064,6.721,7.938,7.824c3.912,1.1,7.786,1.557,7.786,3.949c0,2.014-2.203,2.771-4.33,2.771c-3,0-4.976-1.024-5.127-4.215
	L245.432,50.272L245.432,50.272z M243.988,41.954c-0.188-6.533-6.531-10.254-12.381-10.254c-8.205,0-13.521,6.268-13.521,14.129
	s5.315,14.129,13.521,14.129c6.873,0,12.002-4.102,12.381-11.092h-7.063c-0.266,3.115-2.165,5.014-5.469,5.014
	c-4.56,0-6.306-4.024-6.306-8.051c0-4.025,1.746-8.053,6.306-8.053c2.962,0,5.089,1.443,5.469,4.178H243.988z M207.717,59.387h7.063
	V32.268h-7.063V59.387z M180.257,59.387h6.646V42.485h0.076l9.418,16.902h7.254V32.268h-6.646v16.713h-0.075l-9.42-16.713h-7.255
	L180.257,59.387L180.257,59.387z M157.582,45.829c0-4.024,1.747-8.053,6.305-8.053c4.559,0,6.305,4.027,6.305,8.053
	c0,4.026-1.746,8.051-6.305,8.051C159.329,53.879,157.582,49.854,157.582,45.829 M150.518,45.829
	c0,7.861,4.823,14.129,13.369,14.129c8.547,0,13.369-6.268,13.369-14.129S172.434,31.7,163.887,31.7
	C155.341,31.7,150.518,37.967,150.518,45.829 M131.945,37.928h5.622c1.977,0,3.57,0.91,3.57,2.924c0,2.051-1.14,3.191-3.267,3.191
	h-5.926V37.928z M124.881,59.387h7.063v-9.875h5.356c3.305,0,3.76,2.811,3.95,5.545c0.076,0.76,0.189,3.418,0.797,4.33h6.989
	c-0.95-0.988-1.064-4.977-1.142-6.115c-0.227-2.582-1.063-5.811-3.949-6.494v-0.076c2.85-1.102,4.255-3.875,4.255-6.799
	c0-5.469-4.709-7.635-9.495-7.635h-13.825V59.387L124.881,59.387z M122.526,32.268H99.282v6.078h8.09v21.041h7.063V38.346h8.09
	V32.268z M98.029,41.954C97.839,35.42,91.496,31.7,85.647,31.7c-8.204,0-13.521,6.268-13.521,14.129s5.316,14.129,13.521,14.129
	c6.875,0,12.002-4.102,12.382-11.092h-7.064c-0.265,3.115-2.165,5.014-5.469,5.014c-4.559,0-6.306-4.024-6.306-8.051
	c0-4.025,1.747-8.053,6.306-8.053c2.963,0,5.09,1.443,5.469,4.178H98.029z M47.704,59.387h21.99v-6.076H54.768v-5.166h13.294v-5.469
	H54.768v-4.748h14.547v-5.66h-21.61V59.387z M25.257,59.387H44.97v-6.076H32.322V32.268h-7.064V59.387z M0,59.387h21.991v-6.076
	H7.064v-5.166h13.294v-5.469H7.064v-4.748h14.547v-5.66H0V59.387z"/>
<path fill="#000000" d="M162.102,27.688h7.254l1.709-4.862h9.459l1.67,4.862h7.369l-10.142-27.12h-7.178L162.102,27.688z
	 M175.775,8.09h0.076l3,9.495h-6.151L175.775,8.09z M139.617,27.688h21.989V21.61h-14.926v-5.165h13.293v-5.47h-13.293V6.229h14.547
	v-5.66h-21.61V27.688z M113.486,18.572c0.038,6.95,5.547,9.686,11.775,9.686c5.963,0,11.812-2.203,11.812-9.078
	c0-4.899-3.949-6.722-7.861-7.824c-3.95-1.101-7.862-1.48-7.862-3.57c0-1.784,1.899-2.316,3.418-2.316
	c2.165,0,4.482,0.798,4.368,3.266h7.064C136.161,2.619,130.73,0,125.337,0c-5.09,0-11.053,2.316-11.053,8.241
	c0,4.976,4.063,6.723,7.938,7.824c3.912,1.102,7.786,1.558,7.786,3.95c0,2.013-2.203,2.772-4.33,2.772c-3,0-4.975-1.025-5.127-4.216
	h-7.065V18.572z M85.647,6.229h4.747c2.165,0,3.799,1.025,3.799,3.57c0,2.469-1.596,3.38-3.799,3.38h-4.747V6.229z M78.582,27.688
	h7.064v-9.04h5.812c5.963,0,9.799-2.62,9.799-9.343c0-6.419-4.748-8.736-9.799-8.736H78.582V27.688z M53.325,27.688h21.99V21.61
	H60.389v-5.165h13.294v-5.47H60.389V6.229h14.547v-5.66h-21.61V27.688z M28.068,27.688h21.991V21.61H35.132v-5.165h13.294v-5.47
	H35.132V6.229h14.547v-5.66H28.068V27.688z M7.064,6.646h3.344c4.822,0,7.481,2.394,7.481,7.331c0,5.431-2.127,7.521-7.481,7.634
	H7.064V6.646z M0,27.688h11.66c8.241,0,13.294-4.786,13.294-13.673c0-8.394-4.977-13.446-13.294-13.446H0V27.688z"/>
</svg>
